<svg width="16" height="27" viewBox="0 0 16 27" fill="none" xmlns="http://www.w3.org/2000/svg">
<path id="Vector" fill-rule="evenodd" clip-rule="evenodd" d="M0.610841 14.9587C0.21972 14.5784 0 14.0627 0 13.5249C0 12.9872 0.21972 12.4715 0.610841 12.0912L12.413 0.619107C12.6055 0.425418 12.8357 0.270924 13.0903 0.164642C13.3448 0.0583598 13.6186 0.00241644 13.8956 7.65677e-05C14.1726 -0.0022633 14.4473 0.0490476 14.7037 0.151014C14.9601 0.252981 15.193 0.403562 15.3889 0.593971C15.5848 0.784379 15.7397 1.0108 15.8446 1.26003C15.9495 1.50926 16.0023 1.77629 15.9999 2.04556C15.9975 2.31483 15.94 2.58094 15.8306 2.82835C15.7213 3.07577 15.5623 3.29954 15.3631 3.48661L5.03588 13.5249L15.3631 23.5632C15.7431 23.9457 15.9534 24.458 15.9486 24.9897C15.9439 25.5214 15.7245 26.03 15.3377 26.406C14.9508 26.782 14.4276 26.9953 13.8806 26.9999C13.3335 27.0045 12.8065 26.8001 12.413 26.4307L0.610841 14.9587Z" fill="white"/>
</svg>
